<?xml version="1.0" encoding="UTF-8"?>
<!DOCTYPE svg PUBLIC "-//W3C//DTD SVG 1.1//EN" "http://www.w3.org/Graphics/SVG/1.1/DTD/svg11.dtd">
<svg xmlns="http://www.w3.org/2000/svg" version="1.1" width="460px" height="460px" style="shape-rendering:geometricPrecision; text-rendering:geometricPrecision; image-rendering:optimizeQuality; fill-rule:evenodd; clip-rule:evenodd" xmlns:xlink="http://www.w3.org/1999/xlink">
<g><path style="opacity:0.004" fill="#feff00" d="M 260.5,68.5 C 259.833,67.1667 259.833,67.1667 260.5,68.5 Z"/></g>
<g><path style="opacity:0.004" fill="#fefffe" d="M 136.5,81.5 C 135.833,82.1667 135.833,82.1667 136.5,81.5 Z"/></g>
<g><path style="opacity:0.98" fill="#010100" d="M 217.5,393.5 C 216.209,392.527 216.209,391.527 217.5,390.5C 219.341,389.77 221.175,389.103 223,388.5C 223.499,382.843 223.666,377.176 223.5,371.5C 224.833,371.5 226.167,371.5 227.5,371.5C 228.971,366.214 230.305,360.881 231.5,355.5C 232.833,355.5 234.167,355.5 235.5,355.5C 235.5,351.5 235.5,347.5 235.5,343.5C 236.833,343.5 238.167,343.5 239.5,343.5C 240.162,339.534 240.495,335.534 240.5,331.5C 241.5,331.5 242.5,331.5 243.5,331.5C 243.5,327.5 243.5,323.5 243.5,319.5C 244.833,319.5 246.167,319.5 247.5,319.5C 247.5,317.167 247.5,314.833 247.5,312.5C 252.833,312.167 252.833,311.833 247.5,311.5C 247.5,310.167 247.5,308.833 247.5,307.5C 248.833,307.5 250.167,307.5 251.5,307.5C 251.5,303.5 251.5,299.5 251.5,295.5C 253.167,295.5 254.833,295.5 256.5,295.5C 257.007,290.131 257.841,284.798 259,279.5C 259.829,290.146 260.329,290.146 260.5,279.5C 261.5,279.5 262.5,279.5 263.5,279.5C 263.5,272.833 263.5,266.167 263.5,259.5C 264.833,259.5 266.167,259.5 267.5,259.5C 267.5,258.167 267.5,256.833 267.5,255.5C 268.833,255.5 270.167,255.5 271.5,255.5C 271.5,253.5 271.5,251.5 271.5,249.5C 272.833,249.5 274.167,249.5 275.5,249.5C 275.5,246.167 275.5,242.833 275.5,239.5C 276.833,239.5 278.167,239.5 279.5,239.5C 279.5,234.167 279.5,228.833 279.5,223.5C 280.833,223.5 282.167,223.5 283.5,223.5C 283.5,220.833 283.5,218.167 283.5,215.5C 284.833,215.5 286.167,215.5 287.5,215.5C 287.5,211.5 287.5,207.5 287.5,203.5C 288.833,203.5 290.167,203.5 291.5,203.5C 291.5,199.5 291.5,195.5 291.5,191.5C 292.833,191.5 294.167,191.5 295.5,191.5C 295.5,186.167 295.5,180.833 295.5,175.5C 296.833,175.5 298.167,175.5 299.5,175.5C 299.5,172.833 299.5,170.167 299.5,167.5C 300.833,167.5 302.167,167.5 303.5,167.5C 303.5,164.833 303.5,162.167 303.5,159.5C 304.833,159.5 306.167,159.5 307.5,159.5C 307.5,155.5 307.5,151.5 307.5,147.5C 308.833,147.5 310.167,147.5 311.5,147.5C 311.285,139.64 311.618,131.807 312.5,124C 314.997,120.524 317.163,116.691 319,112.5C 319.645,107.113 320.478,101.78 321.5,96.5C 324.052,91.3512 326.885,86.3512 330,81.5C 331.299,82.09 332.132,83.09 332.5,84.5C 332.472,119.106 332.472,153.939 332.5,189C 345.73,199.65 354.23,213.15 358,229.5C 358.366,236.562 358.866,243.395 359.5,250C 358.965,255.562 357.965,261.062 356.5,266.5C 357.199,269.201 356.532,271.701 354.5,274C 357.59,278.764 361.09,283.264 365,287.5C 377.861,301.026 390.694,314.526 403.5,328C 410.204,329.783 415.537,332.783 419.5,337C 420.167,338.667 420.833,340.333 421.5,342C 410.192,351.971 398.859,361.971 387.5,372C 379.006,378.417 370.006,384.083 360.5,389C 352.301,391.43 344.467,390.597 337,386.5C 333.808,385.163 330.308,383.497 326.5,381.5C 320.667,375.833 314.833,370.167 309,364.5C 308.667,364.833 308.333,365.167 308,365.5C 302.763,361.446 296.763,359.779 290,360.5C 272.854,360.776 257.02,365.276 242.5,374C 237.277,378.781 233.611,384.114 231.5,390C 227.39,394.579 222.724,395.746 217.5,393.5 Z"/></g>
<g><path style="opacity:0.004" fill="#feff00" d="M 320.5,96.5 C 319.833,95.1667 319.833,95.1667 320.5,96.5 Z"/></g>
<g><path style="opacity:0.004" fill="#feff00" d="M 312.5,106.5 C 311.833,105.167 311.833,105.167 312.5,106.5 Z"/></g>
<g><path style="opacity:1" fill="#412e00" d="M 260.5,99.5 C 260.666,105.842 260.5,112.175 260,118.5C 256.205,130.388 252.705,142.388 249.5,154.5C 246.919,156.326 246.919,158.159 249.5,160C 248.437,161.188 247.103,161.688 245.5,161.5C 243.728,167.531 241.895,173.531 240,179.5C 238.418,180.96 237.085,182.627 236,184.5C 234.939,189.104 234.273,193.771 234,198.5C 233.059,200.772 231.726,202.772 230,204.5C 227.749,210.709 225.749,217.042 224,223.5C 220.09,228.776 217.757,234.776 217,241.5C 216.29,242.973 215.124,243.64 213.5,243.5C 213.797,247.911 212.631,251.911 210,255.5C 209.667,257.833 209.333,260.167 209,262.5C 208.311,263.357 207.478,264.023 206.5,264.5C 205.797,272.623 203.297,279.957 199,286.5C 198.689,291.109 197.022,295.109 194,298.5C 192.494,304.062 190.494,309.395 188,314.5C 186.925,318.77 186.425,323.103 186.5,327.5C 185.167,327.5 183.833,327.5 182.5,327.5C 181.92,331.142 181.42,334.809 181,338.5C 179.208,340.942 177.708,343.609 176.5,346.5C 174.844,352.089 173.178,357.422 171.5,362.5C 171.443,361.391 171.11,360.391 170.5,359.5C 171.504,354.482 172.671,349.482 174,344.5C 174.667,343.833 175.333,343.167 176,342.5C 177.021,336.875 178.521,331.375 180.5,326C 186.368,314.421 190.701,302.254 193.5,289.5C 196.093,286.652 197.926,283.319 199,279.5C 201.55,273.399 203.217,267.066 204,260.5C 204.862,258.913 205.529,257.246 206,255.5C 206.667,254.167 207.333,254.167 208,255.5C 212.906,240.948 217.739,226.281 222.5,211.5C 223.48,210.019 224.647,208.685 226,207.5C 228.686,201.105 230.353,194.438 231,187.5C 231.333,187.833 231.667,188.167 232,188.5C 234.105,184.417 235.438,180.083 236,175.5C 239.24,170.876 241.74,165.876 243.5,160.5C 241.562,156.843 242.562,154.843 246.5,154.5C 246.335,151.482 246.502,148.482 247,145.5C 247.667,144.833 248.333,144.167 249,143.5C 250.692,136.73 252.692,130.064 255,123.5C 256.513,115.295 258.346,107.295 260.5,99.5 Z"/></g>
<g><path style="opacity:0.004" fill="#fefffe" d="M 210.5,114.5 C 209.833,113.167 209.833,113.167 210.5,114.5 Z"/></g>
<g><path style="opacity:1" fill="#9b7001" d="M 225.5,101.5 C 223.19,105.859 221.69,110.525 221,115.5C 220,116.5 219,117.5 218,118.5C 212.567,134.966 207.067,151.299 201.5,167.5C 199.876,167.36 198.71,168.027 198,169.5C 196.378,176.943 194.378,184.277 192,191.5C 188.491,201.087 184.491,210.42 180,219.5C 176.795,231.248 172.461,242.581 167,253.5C 161.803,267.257 157.303,281.257 153.5,295.5C 152.52,296.981 151.353,298.315 150,299.5C 147.499,310.378 143.999,320.878 139.5,331C 141.923,332.571 143.256,334.737 143.5,337.5C 141.167,335.833 139.167,333.833 137.5,331.5C 141.245,320.258 145.078,308.591 149,296.5C 149.784,293.24 149.617,290.073 148.5,287C 149.667,286.5 150.5,285.667 151,284.5C 151.415,277.068 153.582,270.235 157.5,264C 157.167,263.667 156.833,263.333 156.5,263C 158.287,258.592 160.453,254.426 163,250.5C 164.224,245.429 165.391,240.429 166.5,235.5C 167.5,235.5 168.5,235.5 169.5,235.5C 170.347,230.111 171.514,224.777 173,219.5C 176.704,213.045 179.037,206.045 180,198.5C 181.011,197.663 182.178,197.33 183.5,197.5C 185.213,193.727 186.546,189.727 187.5,185.5C 186.752,183.584 186.752,181.584 187.5,179.5C 188.5,179.5 189.5,179.5 190.5,179.5C 191.392,172.758 193.559,166.425 197,160.5C 197.592,156.724 198.592,153.057 200,149.5C 200.333,150.5 200.667,151.5 201,152.5C 202.907,146.315 204.574,139.981 206,133.5C 208.078,129.832 209.911,125.999 211.5,122C 210.587,120.586 210.587,119.086 211.5,117.5C 214.5,114.144 217.5,110.811 220.5,107.5C 221.386,106.675 221.719,105.675 221.5,104.5C 222.545,103.122 223.878,102.122 225.5,101.5 Z"/></g>
<g><path style="opacity:0.998" fill="#0e0a00" d="M 320.5,96.5 C 320.833,96.5 321.167,96.5 321.5,96.5C 320.478,101.78 319.645,107.113 319,112.5C 317.163,116.691 314.997,120.524 312.5,124C 311.618,131.807 311.285,139.64 311.5,147.5C 310.167,147.5 308.833,147.5 307.5,147.5C 307.5,151.5 307.5,155.5 307.5,159.5C 306.167,159.5 304.833,159.5 303.5,159.5C 303.5,162.167 303.5,164.833 303.5,167.5C 302.167,167.5 300.833,167.5 299.5,167.5C 299.5,170.167 299.5,172.833 299.5,175.5C 298.167,175.5 296.833,175.5 295.5,175.5C 295.5,180.833 295.5,186.167 295.5,191.5C 294.167,191.5 292.833,191.5 291.5,191.5C 291.5,195.5 291.5,199.5 291.5,203.5C 290.167,203.5 288.833,203.5 287.5,203.5C 287.5,207.5 287.5,211.5 287.5,215.5C 286.167,215.5 284.833,215.5 283.5,215.5C 283.5,218.167 283.5,220.833 283.5,223.5C 282.167,223.5 280.833,223.5 279.5,223.5C 279.5,228.833 279.5,234.167 279.5,239.5C 278.167,239.5 276.833,239.5 275.5,239.5C 275.5,242.833 275.5,246.167 275.5,249.5C 274.167,249.5 272.833,249.5 271.5,249.5C 271.5,251.5 271.5,253.5 271.5,255.5C 270.167,255.5 268.833,255.5 267.5,255.5C 267.5,256.833 267.5,258.167 267.5,259.5C 266.167,259.5 264.833,259.5 263.5,259.5C 263.5,266.167 263.5,272.833 263.5,279.5C 262.5,279.5 261.5,279.5 260.5,279.5C 260.329,290.146 259.829,290.146 259,279.5C 257.841,284.798 257.007,290.131 256.5,295.5C 254.833,295.5 253.167,295.5 251.5,295.5C 251.5,299.5 251.5,303.5 251.5,307.5C 250.167,307.5 248.833,307.5 247.5,307.5C 247.5,308.833 247.5,310.167 247.5,311.5C 252.833,311.833 252.833,312.167 247.5,312.5C 247.5,314.833 247.5,317.167 247.5,319.5C 246.167,319.5 244.833,319.5 243.5,319.5C 243.5,323.5 243.5,327.5 243.5,331.5C 242.5,331.5 241.5,331.5 240.5,331.5C 240.495,335.534 240.162,339.534 239.5,343.5C 238.167,343.5 236.833,343.5 235.5,343.5C 235.5,347.5 235.5,351.5 235.5,355.5C 234.167,355.5 232.833,355.5 231.5,355.5C 230.305,360.881 228.971,366.214 227.5,371.5C 226.167,371.5 224.833,371.5 223.5,371.5C 223.666,377.176 223.499,382.843 223,388.5C 221.175,389.103 219.341,389.77 217.5,390.5C 216.209,391.527 216.209,392.527 217.5,393.5C 214.546,393.286 211.713,391.953 209,389.5C 208.667,389.833 208.333,390.167 208,390.5C 206.374,388.536 204.541,386.869 202.5,385.5C 202.461,384.417 202.127,383.417 201.5,382.5C 202.747,380.677 203.414,378.677 203.5,376.5C 204.5,376.5 205.5,376.5 206.5,376.5C 208.398,369.656 209.398,362.656 209.5,355.5C 210.5,355.5 211.5,355.5 212.5,355.5C 215.704,345.711 218.537,335.711 221,325.5C 221.667,324.167 222.333,322.833 223,321.5C 223.333,322.167 223.667,322.833 224,323.5C 224.333,320.5 224.667,317.5 225,314.5C 226,313.5 227,312.5 228,311.5C 230.03,302.41 232.863,293.577 236.5,285C 237.448,284.517 238.448,284.351 239.5,284.5C 239.08,281.115 238.747,277.948 238.5,275C 239.667,274.5 240.5,273.667 241,272.5C 243.659,264.53 246.825,256.863 250.5,249.5C 251.493,244.88 251.827,240.214 251.5,235.5C 252.5,235.5 253.5,235.5 254.5,235.5C 254.682,230.206 255.182,230.206 256,235.5C 256.797,229.574 258.464,223.907 261,218.5C 264.59,211.239 268.09,203.906 271.5,196.5C 273.496,189.531 275.163,182.531 276.5,175.5C 277.5,175.5 278.5,175.5 279.5,175.5C 279.833,172.833 280.167,170.167 280.5,167.5C 281.5,167.5 282.5,167.5 283.5,167.5C 283.338,165.473 283.505,163.473 284,161.5C 287.101,156.311 288.268,150.644 287.5,144.5C 288.873,144.657 290.207,144.49 291.5,144C 291.15,141.029 290.816,138.029 290.5,135C 290.954,133.378 291.954,132.212 293.5,131.5C 294.466,129.604 294.799,127.604 294.5,125.5C 300.5,119.167 306.5,112.833 312.5,106.5C 313.596,104.897 314.93,103.397 316.5,102C 316.167,101.667 315.833,101.333 315.5,101C 317.24,99.483 318.906,97.983 320.5,96.5 Z"/></g>
<g><path style="opacity:1" fill="#d39b01" d="M 184.5,123.5 C 184.611,124.117 184.944,124.617 185.5,125C 184.044,127.266 183.21,129.766 183,132.5C 179.775,137.119 176.941,141.952 174.5,147C 174.957,147.414 175.291,147.914 175.5,148.5C 174.846,150.115 174.346,151.782 174,153.5C 172.341,154.817 171.174,156.483 170.5,158.5C 169.675,159.386 168.675,159.719 167.5,159.5C 164.529,170.039 161.696,180.706 159,191.5C 156.371,196.421 154.038,201.421 152,206.5C 150.846,207.743 149.512,208.743 148,209.5C 147.667,212.5 147.333,215.5 147,218.5C 145.734,222.963 144.067,227.296 142,231.5C 140.686,235.754 139.853,240.087 139.5,244.5C 138.5,244.5 137.5,244.5 136.5,244.5C 134.083,254.666 131.75,264.833 129.5,275C 128.552,275.483 127.552,275.649 126.5,275.5C 126.287,278.451 126.954,281.118 128.5,283.5C 123.849,281.952 119.516,279.285 115.5,275.5C 116.602,274.255 117.602,272.922 118.5,271.5C 119.339,260.474 121.339,249.808 124.5,239.5C 125.5,239.5 126.5,239.5 127.5,239.5C 127.337,237.143 127.503,234.81 128,232.5C 129.011,231.663 130.178,231.33 131.5,231.5C 131.241,228.435 132.241,225.935 134.5,224C 133.5,223.667 132.5,223.333 131.5,223C 136.742,215.273 139.576,206.773 140,197.5C 142.788,192.553 144.288,187.219 144.5,181.5C 145.619,176.575 147.619,172.075 150.5,168C 149.833,167.667 149.167,167.333 148.5,167C 149.071,164.389 149.904,161.889 151,159.5C 151.333,160.5 151.667,161.5 152,162.5C 154.059,159.051 155.559,155.384 156.5,151.5C 158.744,149.38 160.41,146.88 161.5,144C 161.043,143.586 160.709,143.086 160.5,142.5C 164.945,133.686 170.111,125.353 176,117.5C 178.068,119.562 180.568,120.728 183.5,121C 184.252,121.671 184.586,122.504 184.5,123.5 Z"/></g>
<g><path style="opacity:1" fill="#b28103" d="M 221.5,104.5 C 221.719,105.675 221.386,106.675 220.5,107.5C 217.5,110.811 214.5,114.144 211.5,117.5C 205,121.14 201.5,126.806 201,134.5C 200.667,134.167 200.333,133.833 200,133.5C 199.06,138.047 197.06,142.047 194,145.5C 193.829,149.678 192.662,153.511 190.5,157C 190.735,157.873 191.069,158.707 191.5,159.5C 188.801,165.555 185.801,171.555 182.5,177.5C 181.861,180.475 181.361,183.475 181,186.5C 176.031,198.09 171.531,209.757 167.5,221.5C 167.132,222.91 166.299,223.91 165,224.5C 162.176,234.105 159.176,243.772 156,253.5C 154.171,255.156 152.837,257.156 152,259.5C 150.919,265.403 149.252,271.07 147,276.5C 146.586,276.957 146.086,277.291 145.5,277.5C 143.981,286.211 141.481,294.877 138,303.5C 137.961,307.581 137.128,311.415 135.5,315C 135.735,315.873 136.069,316.707 136.5,317.5C 134.926,319.603 133.926,321.937 133.5,324.5C 130.678,323.338 128.345,321.505 126.5,319C 129.603,309.407 132.103,299.907 134,290.5C 135.356,291.38 136.856,291.714 138.5,291.5C 138.824,286.274 140.324,281.274 143,276.5C 143.333,273.5 143.667,270.5 144,267.5C 144.925,266.953 145.758,266.287 146.5,265.5C 147.014,262.265 148.348,259.432 150.5,257C 151.343,252.431 152.343,247.931 153.5,243.5C 154.5,243.5 155.5,243.5 156.5,243.5C 156.338,241.473 156.505,239.473 157,237.5C 169.708,204.262 182.041,170.929 194,137.5C 197.927,133.354 199.761,128.354 199.5,122.5C 201.103,122.688 202.437,122.188 203.5,121C 202.027,120.29 201.36,119.124 201.5,117.5C 201.435,117.062 201.601,116.728 202,116.5C 202.415,118.291 203.415,119.624 205,120.5C 206.699,118.304 208.533,116.304 210.5,114.5C 213.753,110.603 217.419,107.27 221.5,104.5 Z"/></g>
<g><path style="opacity:1" fill="#694c00" d="M 259.5,70.5 C 259.926,71.5279 259.926,72.8612 259.5,74.5C 258.022,74.238 256.689,74.5713 255.5,75.5C 253.171,78.0488 251.004,80.7154 249,83.5C 247.665,91.5049 246.332,99.5049 245,107.5C 241.047,116.663 237.714,125.996 235,135.5C 231.216,142.709 228.549,150.376 227,158.5C 222.999,163.153 221.333,168.486 222,174.5C 216.564,181.523 213.23,189.523 212,198.5C 209.265,206.422 205.598,213.755 201,220.5C 198.912,232.033 195.246,243.033 190,253.5C 189.143,258.765 187.143,263.431 184,267.5C 183.317,272.234 182.317,276.9 181,281.5C 174.44,294.016 170.607,307.349 169.5,321.5C 167.341,322.785 166.674,324.452 167.5,326.5C 164.904,333.87 162.571,341.37 160.5,349C 161.148,350.44 161.481,351.94 161.5,353.5C 159.878,352.878 158.545,351.878 157.5,350.5C 156.969,348.456 155.802,346.789 154,345.5C 153.333,343.167 153.333,340.833 154,338.5C 159.514,324.958 164.347,311.125 168.5,297C 175.174,282.353 180.341,267.52 184,252.5C 185.867,250.192 186.867,247.525 187,244.5C 188,243.5 189,242.5 190,241.5C 193.722,225.205 199.556,209.872 207.5,195.5C 209.397,187.389 211.563,179.389 214,171.5C 216.832,167.997 218.999,164.164 220.5,160C 219.15,156.29 220.317,153.457 224,151.5C 224.683,146.766 225.683,142.1 227,137.5C 229.871,132.256 232.537,126.923 235,121.5C 236.733,115.635 237.899,109.635 238.5,103.5C 241.662,96.3413 244.328,89.008 246.5,81.5C 248.164,80.2568 249.331,78.5902 250,76.5C 250.333,76.8333 250.667,77.1667 251,77.5C 252.667,75.5 254.333,73.5 256,71.5C 256.333,71.8333 256.667,72.1667 257,72.5C 257.075,70.065 257.908,69.3984 259.5,70.5 Z"/></g>
<g><path style="opacity:0.999" fill="#161000" d="M 294.5,125.5 C 294.799,127.604 294.466,129.604 293.5,131.5C 291.954,132.212 290.954,133.378 290.5,135C 290.816,138.029 291.15,141.029 291.5,144C 290.207,144.49 288.873,144.657 287.5,144.5C 288.268,150.644 287.101,156.311 284,161.5C 283.505,163.473 283.338,165.473 283.5,167.5C 282.5,167.5 281.5,167.5 280.5,167.5C 280.167,170.167 279.833,172.833 279.5,175.5C 278.5,175.5 277.5,175.5 276.5,175.5C 275.163,182.531 273.496,189.531 271.5,196.5C 268.09,203.906 264.59,211.239 261,218.5C 258.464,223.907 256.797,229.574 256,235.5C 255.182,230.206 254.682,230.206 254.5,235.5C 253.5,235.5 252.5,235.5 251.5,235.5C 251.827,240.214 251.493,244.88 250.5,249.5C 246.825,256.863 243.659,264.53 241,272.5C 240.5,273.667 239.667,274.5 238.5,275C 238.747,277.948 239.08,281.115 239.5,284.5C 238.448,284.351 237.448,284.517 236.5,285C 232.863,293.577 230.03,302.41 228,311.5C 227,312.5 226,313.5 225,314.5C 224.667,317.5 224.333,320.5 224,323.5C 223.667,322.833 223.333,322.167 223,321.5C 222.333,322.833 221.667,324.167 221,325.5C 218.537,335.711 215.704,345.711 212.5,355.5C 211.5,355.5 210.5,355.5 209.5,355.5C 209.398,362.656 208.398,369.656 206.5,376.5C 205.5,376.5 204.5,376.5 203.5,376.5C 203.414,378.677 202.747,380.677 201.5,382.5C 202.127,383.417 202.461,384.417 202.5,385.5C 199.922,384.587 197.589,383.254 195.5,381.5C 195.167,380.833 194.833,380.167 194.5,379.5C 194.5,378.833 194.5,378.167 194.5,377.5C 196.17,377.249 197.67,376.582 199,375.5C 200.03,371.227 200.697,366.894 201,362.5C 205.563,357.374 207.896,351.374 208,344.5C 212.212,336.316 214.546,327.649 215,318.5C 215.333,319.833 215.667,321.167 216,322.5C 218.479,318.877 219.812,314.877 220,310.5C 221,309.5 222,308.5 223,307.5C 223.772,303.11 223.606,298.777 222.5,294.5C 224.071,292.118 224.904,289.451 225,286.5C 225.333,289.167 225.667,291.833 226,294.5C 226.973,292.608 227.64,290.608 228,288.5C 229.011,287.663 230.178,287.33 231.5,287.5C 231.714,285.856 231.38,284.356 230.5,283C 235.005,277.469 236.671,271.303 235.5,264.5C 236.771,264.874 237.938,264.208 239,262.5C 239.602,258.117 240.435,253.784 241.5,249.5C 242.315,247.724 243.482,247.057 245,247.5C 247.249,237.965 248.915,228.298 250,218.5C 250.333,218.167 250.667,217.833 251,217.5C 251.495,219.473 251.662,221.473 251.5,223.5C 252.833,223.5 254.167,223.5 255.5,223.5C 255.335,220.482 255.502,217.482 256,214.5C 259.222,208.726 261.888,202.726 264,196.5C 263.658,192.804 263.824,189.137 264.5,185.5C 265.612,183.61 266.446,181.61 267,179.5C 267.333,180.833 267.667,182.167 268,183.5C 268.596,178.854 270.43,174.854 273.5,171.5C 274.634,166.165 275.634,160.831 276.5,155.5C 277.5,155.5 278.5,155.5 279.5,155.5C 279.335,152.482 279.502,149.482 280,146.5C 283.723,144.296 284.223,141.629 281.5,138.5C 283.431,136.196 285.764,134.362 288.5,133C 289.305,131.887 289.972,130.721 290.5,129.5C 291.5,127.833 292.833,126.5 294.5,125.5 Z"/></g>
<g><path style="opacity:0.998" fill="#2f2201" d="M 264.5,125.5 C 264.19,129.7 264.857,133.7 266.5,137.5C 264.577,141.029 263.911,145.029 264.5,149.5C 263.5,149.5 262.5,149.5 261.5,149.5C 261.255,155.054 260.255,160.388 258.5,165.5C 257.5,165.5 256.5,165.5 255.5,165.5C 252.971,174.425 250.471,183.425 248,192.5C 247.333,193.167 246.667,193.833 246,194.5C 245.548,197.877 244.882,201.211 244,204.5C 241.634,209.552 239.467,214.552 237.5,219.5C 236.5,219.5 235.5,219.5 234.5,219.5C 235.164,225.517 233.664,230.85 230,235.5C 229.667,237.833 229.333,240.167 229,242.5C 223.526,257.379 217.526,272.045 211,286.5C 210.248,290.852 209.415,295.185 208.5,299.5C 207.833,299.833 207.167,300.167 206.5,300.5C 205.454,304.924 204.121,309.258 202.5,313.5C 200.519,314.105 200.185,315.105 201.5,316.5C 198.865,321.118 197.365,326.118 197,331.5C 195.989,332.337 194.822,332.67 193.5,332.5C 193.33,333.822 193.663,334.989 194.5,336C 191.437,343.841 188.437,351.675 185.5,359.5C 186.779,363.447 185.446,366.28 181.5,368C 182.056,368.383 182.389,368.883 182.5,369.5C 179.33,368.415 177.33,366.248 176.5,363C 178.151,356.059 179.985,349.225 182,342.5C 183.154,341.257 184.488,340.257 186,339.5C 186.532,332.71 187.699,326.043 189.5,319.5C 190.675,319.719 191.675,319.386 192.5,318.5C 193.293,315.019 195.459,313.019 199,312.5C 203.131,296.043 208.131,280.043 214,264.5C 214.71,263.027 215.876,262.36 217.5,262.5C 218.081,254.211 220.581,246.544 225,239.5C 226.46,234.531 227.794,229.531 229,224.5C 233.13,220.463 235.13,215.463 235,209.5C 238.547,203.719 241.714,197.719 244.5,191.5C 247.294,181.527 249.961,171.527 252.5,161.5C 253.822,161.67 254.989,161.337 256,160.5C 258.398,151.925 260.231,143.258 261.5,134.5C 260.718,131.154 261.051,127.821 262.5,124.5C 263.183,124.863 263.85,125.196 264.5,125.5 Z"/></g>
<g><path style="opacity:0.992" fill="#efc012" d="M 166.5,106.5 C 163.542,107.356 160.542,107.523 157.5,107C 152.451,109.641 150.618,113.808 152,119.5C 154.512,123.207 156.345,127.207 157.5,131.5C 153.949,132.61 150.449,132.61 147,131.5C 142.902,133.066 138.735,134.399 134.5,135.5C 133.072,139.374 131.906,143.374 131,147.5C 127.882,150.07 126.715,153.404 127.5,157.5C 126.167,157.5 124.833,157.5 123.5,157.5C 123.5,159.833 123.5,162.167 123.5,164.5C 117.036,161.836 110.036,159.836 102.5,158.5C 101.653,157.034 100.32,156.2 98.5,156C 99.2744,153.595 99.7744,151.095 100,148.5C 103.155,146.788 104.822,144.121 105,140.5C 105.333,140.833 105.667,141.167 106,141.5C 108.826,139.294 111.659,137.294 114.5,135.5C 127.913,132.94 140.913,131.273 153.5,130.5C 151.185,123.396 148.185,116.562 144.5,110C 144.833,109.667 145.167,109.333 145.5,109C 144.015,104.368 142.015,100.034 139.5,96C 140.634,94.984 140.301,94.3173 138.5,94C 139.059,93.2753 139.392,92.4419 139.5,91.5C 138.135,88.2001 137.135,84.8668 136.5,81.5C 135.402,80.603 135.402,79.7697 136.5,79C 135.833,78.6667 135.167,78.3333 134.5,78C 135.833,76.6667 135.833,75.3333 134.5,74C 135.833,73.3333 137.167,73.3333 138.5,74C 140.221,76.6252 141.721,79.7919 143,83.5C 145.483,84.93 147.983,87.0967 150.5,90C 150.167,90.3333 149.833,90.6667 149.5,91C 155.21,94.4623 160.877,99.629 166.5,106.5 Z"/></g>
<g><path style="opacity:1" fill="#c79203" d="M 193.5,103.5 C 195.943,106.514 197.943,110.514 199.5,115.5C 198.417,115.461 197.417,115.127 196.5,114.5C 194.717,117.673 193.217,121.006 192,124.5C 190.989,125.337 189.822,125.67 188.5,125.5C 188.611,129.349 187.278,132.516 184.5,135C 186.176,139.114 185.343,142.614 182,145.5C 180.1,150.694 178.933,156.027 178.5,161.5C 175.795,161.38 175.128,162.38 176.5,164.5C 172.915,171.935 169.748,179.602 167,187.5C 167.222,192.314 165.722,196.481 162.5,200C 161.839,202.464 161.339,204.964 161,207.5C 159.171,209.156 157.837,211.156 157,213.5C 153.397,224.01 149.897,234.676 146.5,245.5C 144.21,248.494 142.376,251.827 141,255.5C 139.007,265.043 136.507,274.377 133.5,283.5C 134.822,286.466 136.489,289.133 138.5,291.5C 136.856,291.714 135.356,291.38 134,290.5C 132.103,299.907 129.603,309.407 126.5,319C 128.345,321.505 130.678,323.338 133.5,324.5C 133.5,325.5 133.5,326.5 133.5,327.5C 131.116,325.115 128.45,323.115 125.5,321.5C 125.5,320.5 125.5,319.5 125.5,318.5C 124.167,318.5 122.833,318.5 121.5,318.5C 121.939,315.182 121.939,312.016 121.5,309C 122.819,305.094 123.819,301.094 124.5,297C 123.072,294.679 123.572,292.845 126,291.5C 128.03,291.046 129.863,290.38 131.5,289.5C 131.918,288.778 132.584,288.278 133.5,288C 131.937,286.264 130.27,284.764 128.5,283.5C 126.954,281.118 126.287,278.451 126.5,275.5C 127.552,275.649 128.552,275.483 129.5,275C 131.75,264.833 134.083,254.666 136.5,244.5C 137.5,244.5 138.5,244.5 139.5,244.5C 139.853,240.087 140.686,235.754 142,231.5C 144.067,227.296 145.734,222.963 147,218.5C 147.333,215.5 147.667,212.5 148,209.5C 149.512,208.743 150.846,207.743 152,206.5C 154.038,201.421 156.371,196.421 159,191.5C 161.696,180.706 164.529,170.039 167.5,159.5C 168.675,159.719 169.675,159.386 170.5,158.5C 171.174,156.483 172.341,154.817 174,153.5C 174.346,151.782 174.846,150.115 175.5,148.5C 175.291,147.914 174.957,147.414 174.5,147C 176.941,141.952 179.775,137.119 183,132.5C 183.21,129.766 184.044,127.266 185.5,125C 184.944,124.617 184.611,124.117 184.5,123.5C 185.376,123.631 186.043,123.298 186.5,122.5C 185.425,119.562 185.259,116.562 186,113.5C 187.105,110.521 188.105,107.188 189,103.5C 189.667,107.5 190.333,107.5 191,103.5C 192.071,106.113 192.905,106.113 193.5,103.5 Z"/></g>
<g><path style="opacity:0.999" fill="#1c1500" d="M 290.5,129.5 C 289.972,130.721 289.305,131.887 288.5,133C 285.764,134.362 283.431,136.196 281.5,138.5C 284.223,141.629 283.723,144.296 280,146.5C 279.502,149.482 279.335,152.482 279.5,155.5C 278.5,155.5 277.5,155.5 276.5,155.5C 275.634,160.831 274.634,166.165 273.5,171.5C 270.43,174.854 268.596,178.854 268,183.5C 267.667,182.167 267.333,180.833 267,179.5C 266.446,181.61 265.612,183.61 264.5,185.5C 263.824,189.137 263.658,192.804 264,196.5C 261.888,202.726 259.222,208.726 256,214.5C 255.502,217.482 255.335,220.482 255.5,223.5C 254.167,223.5 252.833,223.5 251.5,223.5C 251.662,221.473 251.495,219.473 251,217.5C 250.667,217.833 250.333,218.167 250,218.5C 248.915,228.298 247.249,237.965 245,247.5C 243.482,247.057 242.315,247.724 241.5,249.5C 240.435,253.784 239.602,258.117 239,262.5C 237.938,264.208 236.771,264.874 235.5,264.5C 236.671,271.303 235.005,277.469 230.5,283C 231.38,284.356 231.714,285.856 231.5,287.5C 230.178,287.33 229.011,287.663 228,288.5C 227.64,290.608 226.973,292.608 226,294.5C 225.667,291.833 225.333,289.167 225,286.5C 224.904,289.451 224.071,292.118 222.5,294.5C 223.606,298.777 223.772,303.11 223,307.5C 222,308.5 221,309.5 220,310.5C 219.812,314.877 218.479,318.877 216,322.5C 215.667,321.167 215.333,319.833 215,318.5C 214.546,327.649 212.212,336.316 208,344.5C 207.896,351.374 205.563,357.374 201,362.5C 200.697,366.894 200.03,371.227 199,375.5C 197.67,376.582 196.17,377.249 194.5,377.5C 192.444,376.407 191.444,374.574 191.5,372C 191.804,367.619 192.804,363.453 194.5,359.5C 195.5,359.5 196.5,359.5 197.5,359.5C 197.72,355.055 198.554,350.722 200,346.5C 203.245,341.758 204.412,336.424 203.5,330.5C 204.833,330.5 206.167,330.5 207.5,330.5C 207.552,326.802 207.886,323.135 208.5,319.5C 209.5,319.5 210.5,319.5 211.5,319.5C 211.187,316.753 211.52,314.086 212.5,311.5C 213.298,313.078 213.798,314.744 214,316.5C 215.162,309.531 215.996,302.531 216.5,295.5C 217.5,295.5 218.5,295.5 219.5,295.5C 219.336,292.813 219.503,290.146 220,287.5C 222.093,285.222 223.593,282.556 224.5,279.5C 227.347,269.454 230.514,259.454 234,249.5C 236.098,246.455 237.598,243.122 238.5,239.5C 239.318,242.107 239.818,244.774 240,247.5C 240.585,242.489 241.251,237.489 242,232.5C 244.595,225.373 246.595,218.04 248,210.5C 250.788,208.588 252.121,205.921 252,202.5C 253.161,201.005 254.327,199.505 255.5,198C 257.12,190.348 259.12,182.848 261.5,175.5C 263.167,175.5 264.833,175.5 266.5,175.5C 266.764,170.446 268.264,165.779 271,161.5C 271.333,158.167 271.667,154.833 272,151.5C 273.14,146.049 274.64,142.049 276.5,139.5C 280.043,136.922 283.21,133.922 286,130.5C 286.333,130.833 286.667,131.167 287,131.5C 287.816,130.177 288.983,129.511 290.5,129.5 Z"/></g>
<g><path style="opacity:1" fill="#493501" d="M 266.5,75.5 C 266.576,77.3035 266.243,79.3035 265.5,81.5C 262.837,87.1083 261.17,93.1083 260.5,99.5C 258.346,107.295 256.513,115.295 255,123.5C 252.692,130.064 250.692,136.73 249,143.5C 248.333,144.167 247.667,144.833 247,145.5C 246.502,148.482 246.335,151.482 246.5,154.5C 242.562,154.843 241.562,156.843 243.5,160.5C 241.74,165.876 239.24,170.876 236,175.5C 235.438,180.083 234.105,184.417 232,188.5C 231.667,188.167 231.333,187.833 231,187.5C 230.353,194.438 228.686,201.105 226,207.5C 224.647,208.685 223.48,210.019 222.5,211.5C 217.739,226.281 212.906,240.948 208,255.5C 207.333,254.167 206.667,254.167 206,255.5C 205.529,257.246 204.862,258.913 204,260.5C 203.217,267.066 201.55,273.399 199,279.5C 197.926,283.319 196.093,286.652 193.5,289.5C 190.701,302.254 186.368,314.421 180.5,326C 178.521,331.375 177.021,336.875 176,342.5C 175.333,343.167 174.667,343.833 174,344.5C 172.671,349.482 171.504,354.482 170.5,359.5C 169.533,358.194 168.199,357.527 166.5,357.5C 166.337,355.143 166.503,352.81 167,350.5C 168.902,348.116 170.069,345.449 170.5,342.5C 170.336,339.813 170.503,337.146 171,334.5C 172.605,331.352 173.605,328.019 174,324.5C 174.667,323.833 175.333,323.167 176,322.5C 176.809,316.189 178.809,310.189 182,304.5C 182.595,300.788 183.928,297.455 186,294.5C 187.158,290.203 188.158,285.869 189,281.5C 192.141,277.043 194.808,272.376 197,267.5C 199.954,255.946 203.954,244.946 209,234.5C 210.222,228.828 212.222,223.495 215,218.5C 217.715,209.921 220.048,201.254 222,192.5C 226.889,185.699 229.889,178.032 231,169.5C 231.333,170.167 231.667,170.833 232,171.5C 235.139,166.432 236.472,161.098 236,155.5C 236.833,154 238,152.833 239.5,152C 238.692,151.692 238.025,151.192 237.5,150.5C 241.292,143.408 244.792,136.075 248,128.5C 248.421,124.128 249.088,119.795 250,115.5C 250.71,114.027 251.876,113.36 253.5,113.5C 256.016,104.363 258.349,95.0295 260.5,85.5C 260.179,84.1825 259.846,82.8492 259.5,81.5C 260.959,78.3313 261.792,74.998 262,71.5C 262.689,70.6433 263.522,69.9767 264.5,69.5C 265.169,71.6309 265.835,73.6309 266.5,75.5 Z"/></g>
<g><path style="opacity:1" fill="#755500" d="M 246.5,81.5 C 244.328,89.008 241.662,96.3413 238.5,103.5C 237.899,109.635 236.733,115.635 235,121.5C 232.537,126.923 229.871,132.256 227,137.5C 225.683,142.1 224.683,146.766 224,151.5C 220.317,153.457 219.15,156.29 220.5,160C 218.999,164.164 216.832,167.997 214,171.5C 211.563,179.389 209.397,187.389 207.5,195.5C 199.556,209.872 193.722,225.205 190,241.5C 189,242.5 188,243.5 187,244.5C 186.867,247.525 185.867,250.192 184,252.5C 180.341,267.52 175.174,282.353 168.5,297C 164.347,311.125 159.514,324.958 154,338.5C 153.333,340.833 153.333,343.167 154,345.5C 155.802,346.789 156.969,348.456 157.5,350.5C 154.833,349.167 152.833,347.167 151.5,344.5C 150.89,343.609 150.557,342.609 150.5,341.5C 150.865,338.443 151.865,335.276 153.5,332C 152.898,330.096 153.398,328.263 155,326.5C 155.333,322.5 155.667,318.5 156,314.5C 157.713,313.122 159.047,311.455 160,309.5C 162.151,301.049 164.485,292.716 167,284.5C 168.158,284.002 168.991,283.169 169.5,282C 170.956,276.235 172.123,270.401 173,264.5C 176.923,259.976 179.256,254.643 180,248.5C 182.402,245.086 184.402,241.42 186,237.5C 187.285,228.491 190.285,220.157 195,212.5C 196,207.833 197,203.167 198,198.5C 199.011,197.663 200.178,197.33 201.5,197.5C 203.612,186.726 207.112,176.393 212,166.5C 212.607,161.284 213.774,156.284 215.5,151.5C 216.5,151.5 217.5,151.5 218.5,151.5C 219.723,145.888 220.889,140.221 222,134.5C 225.816,129.943 227.816,124.61 228,118.5C 232.613,112.339 234.779,105.339 234.5,97.5C 236.638,93.6549 239.472,90.3216 243,87.5C 243.483,86.552 243.649,85.552 243.5,84.5C 244.5,83.5 245.5,82.5 246.5,81.5 Z"/></g>
<g><path style="opacity:0.956" fill="#fadf16" d="M 114.5,135.5 C 111.659,137.294 108.826,139.294 106,141.5C 105.667,141.167 105.333,140.833 105,140.5C 104.822,144.121 103.155,146.788 100,148.5C 99.7744,151.095 99.2744,153.595 98.5,156C 100.32,156.2 101.653,157.034 102.5,158.5C 92.7903,158.553 83.2903,158.553 74,158.5C 73.3333,159.167 72.6667,159.833 72,160.5C 69.3787,160.296 66.5453,160.296 63.5,160.5C 63.9762,158.007 65.3096,156.007 67.5,154.5C 70.5969,152.439 73.4302,150.106 76,147.5C 77.016,148.634 77.6827,148.301 78,146.5C 79,146.5 80,146.5 81,146.5C 85.3518,143.837 90.3518,141.503 96,139.5C 97.016,140.634 97.6827,140.301 98,138.5C 98.3333,138.833 98.6667,139.167 99,139.5C 104.108,138.14 109.108,136.473 114,134.5C 114.399,134.728 114.565,135.062 114.5,135.5 Z"/></g>
<g><path style="opacity:1" fill="#bc8900" d="M 199.5,115.5 C 200.167,116.167 200.833,116.833 201.5,117.5C 201.36,119.124 202.027,120.29 203.5,121C 202.437,122.188 201.103,122.688 199.5,122.5C 199.761,128.354 197.927,133.354 194,137.5C 182.041,170.929 169.708,204.262 157,237.5C 156.505,239.473 156.338,241.473 156.5,243.5C 155.5,243.5 154.5,243.5 153.5,243.5C 152.343,247.931 151.343,252.431 150.5,257C 148.348,259.432 147.014,262.265 146.5,265.5C 145.758,266.287 144.925,266.953 144,267.5C 143.667,270.5 143.333,273.5 143,276.5C 140.324,281.274 138.824,286.274 138.5,291.5C 136.489,289.133 134.822,286.466 133.5,283.5C 136.507,274.377 139.007,265.043 141,255.5C 142.376,251.827 144.21,248.494 146.5,245.5C 149.897,234.676 153.397,224.01 157,213.5C 157.837,211.156 159.171,209.156 161,207.5C 161.339,204.964 161.839,202.464 162.5,200C 165.722,196.481 167.222,192.314 167,187.5C 169.748,179.602 172.915,171.935 176.5,164.5C 175.128,162.38 175.795,161.38 178.5,161.5C 178.933,156.027 180.1,150.694 182,145.5C 185.343,142.614 186.176,139.114 184.5,135C 187.278,132.516 188.611,129.349 188.5,125.5C 189.822,125.67 190.989,125.337 192,124.5C 193.217,121.006 194.717,117.673 196.5,114.5C 197.417,115.127 198.417,115.461 199.5,115.5 Z"/></g>
<g><path style="opacity:0.988" fill="#fce512" d="M 72.5,181.5 C 72.5858,182.496 72.2524,183.329 71.5,184C 73.1667,184.333 74.8333,184.667 76.5,185C 74.8787,187.166 74.0454,189.666 74,192.5C 72.6914,194.891 71.6914,194.891 71,192.5C 69.6823,197.433 68.849,202.433 68.5,207.5C 66.8333,207.5 65.1667,207.5 63.5,207.5C 55.0008,200.494 47.6674,192.328 41.5,183C 41.8333,182.667 42.1667,182.333 42.5,182C 41.3333,180.167 39.8333,178.667 38,177.5C 37.3333,175.833 37.3333,174.167 38,172.5C 48.5742,177.33 60.0742,180.33 72.5,181.5 Z"/></g>
<g><path style="opacity:0.998" fill="#ebb604" d="M 136.5,173.5 C 137.756,173.461 138.756,173.961 139.5,175C 135.227,176.984 130.893,178.818 126.5,180.5C 125.289,181.274 125.289,182.107 126.5,183C 125.552,183.483 124.552,183.649 123.5,183.5C 122.908,186.127 122.575,188.794 122.5,191.5C 121.5,191.5 120.5,191.5 119.5,191.5C 119.167,196.833 118.833,202.167 118.5,207.5C 116.833,207.5 115.167,207.5 113.5,207.5C 113.308,212.27 112.475,216.936 111,221.5C 110.29,220.027 109.124,219.36 107.5,219.5C 107.334,223.514 107.501,227.514 108,231.5C 109,230.833 110,230.167 111,229.5C 111.456,230.744 110.956,231.577 109.5,232C 111.893,233.863 114.56,235.196 117.5,236C 113.167,236.333 108.833,236.667 104.5,237C 103.448,238.716 104.114,239.716 106.5,240C 103.214,243.254 102.548,247.088 104.5,251.5C 103.8,254.723 102.8,257.89 101.5,261C 102.643,263.451 103.643,265.951 104.5,268.5C 103.757,269.182 103.091,269.849 102.5,270.5C 94.4835,267.831 86.4835,265.164 78.5,262.5C 76.16,261.161 74.8267,259.494 74.5,257.5C 76.7979,253.412 77.1313,249.078 75.5,244.5C 76.4766,242.157 77.81,239.99 79.5,238C 82.1909,237.844 84.5242,237.011 86.5,235.5C 92.4069,234.654 98.0736,233.82 103.5,233C 100.833,232 98.1667,231 95.5,230C 94.6195,229.292 93.9528,228.458 93.5,227.5C 93.67,226.178 93.3366,225.011 92.5,224C 93.448,223.517 94.448,223.351 95.5,223.5C 95.1758,219.445 95.5091,215.445 96.5,211.5C 98.4956,208.099 99.6623,204.432 100,200.5C 100.414,200.043 100.914,199.709 101.5,199.5C 102.475,194.456 103.642,189.456 105,184.5C 108.005,183.973 110.505,182.64 112.5,180.5C 115.836,180.533 119.003,179.866 122,178.5C 124.728,178.986 127.395,178.32 130,176.5C 130.333,176.833 130.667,177.167 131,177.5C 133.311,176.603 135.144,175.27 136.5,173.5 Z"/></g>
<g><path style="opacity:0.998" fill="#f7d40c" d="M 72.5,181.5 C 81.1423,182.299 89.8089,182.632 98.5,182.5C 98.6107,183.117 98.944,183.617 99.5,184C 95.9115,184.022 93.5782,185.689 92.5,189C 91.9461,191.824 91.4461,194.657 91,197.5C 88.2007,204.012 85.7007,210.679 83.5,217.5C 83.9186,218.672 84.5853,219.672 85.5,220.5C 84.7573,221.182 84.0906,221.849 83.5,222.5C 78.5138,220.006 73.8471,217.006 69.5,213.5C 67.3826,211.45 65.3826,209.45 63.5,207.5C 65.1667,207.5 66.8333,207.5 68.5,207.5C 68.849,202.433 69.6823,197.433 71,192.5C 71.6914,194.891 72.6914,194.891 74,192.5C 74.0454,189.666 74.8787,187.166 76.5,185C 74.8333,184.667 73.1667,184.333 71.5,184C 72.2524,183.329 72.5858,182.496 72.5,181.5 Z"/></g>
<g><path style="opacity:0.999" fill="#f0c005" d="M 112.5,180.5 C 110.505,182.64 108.005,183.973 105,184.5C 103.642,189.456 102.475,194.456 101.5,199.5C 100.914,199.709 100.414,200.043 100,200.5C 99.6623,204.432 98.4956,208.099 96.5,211.5C 95.5091,215.445 95.1758,219.445 95.5,223.5C 94.448,223.351 93.448,223.517 92.5,224C 93.3366,225.011 93.67,226.178 93.5,227.5C 89.701,226.579 86.3677,224.912 83.5,222.5C 84.0906,221.849 84.7573,221.182 85.5,220.5C 84.5853,219.672 83.9186,218.672 83.5,217.5C 85.7007,210.679 88.2007,204.012 91,197.5C 91.4461,194.657 91.9461,191.824 92.5,189C 93.5782,185.689 95.9115,184.022 99.5,184C 98.944,183.617 98.6107,183.117 98.5,182.5C 102.819,181.676 107.485,181.01 112.5,180.5 Z"/></g>
<g><path style="opacity:1" fill="#8f6700" d="M 150.5,341.5 C 150.557,342.609 150.89,343.609 151.5,344.5C 148.236,342.906 145.569,340.573 143.5,337.5C 143.256,334.737 141.923,332.571 139.5,331C 143.999,320.878 147.499,310.378 150,299.5C 151.353,298.315 152.52,296.981 153.5,295.5C 157.303,281.257 161.803,267.257 167,253.5C 172.461,242.581 176.795,231.248 180,219.5C 184.491,210.42 188.491,201.087 192,191.5C 194.378,184.277 196.378,176.943 198,169.5C 198.71,168.027 199.876,167.36 201.5,167.5C 207.067,151.299 212.567,134.966 218,118.5C 219,117.5 220,116.5 221,115.5C 221.69,110.525 223.19,105.859 225.5,101.5C 225.5,100.167 226.167,99.5 227.5,99.5C 228.895,97.9456 229.561,98.279 229.5,100.5C 217.9,133.183 206.4,165.183 195,196.5C 187.499,212.996 181.166,229.996 176,247.5C 172.917,252.006 171.25,257.006 171,262.5C 167.251,266.289 165.584,270.955 166,276.5C 163.309,281.574 160.809,286.741 158.5,292C 159.554,293.388 159.72,294.888 159,296.5C 157.615,297.551 156.615,298.884 156,300.5C 151.666,312.165 147.833,323.999 144.5,336C 146.37,338.04 148.37,339.873 150.5,341.5 Z"/></g>
<g><path style="opacity:1" fill="#e1a802" d="M 193.5,103.5 C 192.905,106.113 192.071,106.113 191,103.5C 190.333,107.5 189.667,107.5 189,103.5C 188.105,107.188 187.105,110.521 186,113.5C 185.259,116.562 185.425,119.562 186.5,122.5C 186.043,123.298 185.376,123.631 184.5,123.5C 184.586,122.504 184.252,121.671 183.5,121C 180.568,120.728 178.068,119.562 176,117.5C 170.111,125.353 164.945,133.686 160.5,142.5C 160.709,143.086 161.043,143.586 161.5,144C 160.41,146.88 158.744,149.38 156.5,151.5C 155.559,155.384 154.059,159.051 152,162.5C 151.667,161.5 151.333,160.5 151,159.5C 149.904,161.889 149.071,164.389 148.5,167C 149.167,167.333 149.833,167.667 150.5,168C 147.619,172.075 145.619,176.575 144.5,181.5C 144.288,187.219 142.788,192.553 140,197.5C 139.576,206.773 136.742,215.273 131.5,223C 132.5,223.333 133.5,223.667 134.5,224C 132.241,225.935 131.241,228.435 131.5,231.5C 130.178,231.33 129.011,231.663 128,232.5C 127.503,234.81 127.337,237.143 127.5,239.5C 126.5,239.5 125.5,239.5 124.5,239.5C 121.339,249.808 119.339,260.474 118.5,271.5C 117.602,272.922 116.602,274.255 115.5,275.5C 111.039,274.015 106.705,272.349 102.5,270.5C 103.091,269.849 103.757,269.182 104.5,268.5C 103.643,265.951 102.643,263.451 101.5,261C 102.8,257.89 103.8,254.723 104.5,251.5C 102.548,247.088 103.214,243.254 106.5,240C 104.114,239.716 103.448,238.716 104.5,237C 108.833,236.667 113.167,236.333 117.5,236C 114.56,235.196 111.893,233.863 109.5,232C 110.956,231.577 111.456,230.744 111,229.5C 110,230.167 109,230.833 108,231.5C 107.501,227.514 107.334,223.514 107.5,219.5C 109.124,219.36 110.29,220.027 111,221.5C 112.475,216.936 113.308,212.27 113.5,207.5C 115.167,207.5 116.833,207.5 118.5,207.5C 118.833,202.167 119.167,196.833 119.5,191.5C 120.5,191.5 121.5,191.5 122.5,191.5C 122.575,188.794 122.908,186.127 123.5,183.5C 124.552,183.649 125.552,183.483 126.5,183C 125.289,182.107 125.289,181.274 126.5,180.5C 130.893,178.818 135.227,176.984 139.5,175C 138.756,173.961 137.756,173.461 136.5,173.5C 132.716,169.755 128.383,166.755 123.5,164.5C 123.5,162.167 123.5,159.833 123.5,157.5C 124.833,157.5 126.167,157.5 127.5,157.5C 126.715,153.404 127.882,150.07 131,147.5C 131.906,143.374 133.072,139.374 134.5,135.5C 138.735,134.399 142.902,133.066 147,131.5C 150.449,132.61 153.949,132.61 157.5,131.5C 156.345,127.207 154.512,123.207 152,119.5C 150.618,113.808 152.451,109.641 157.5,107C 160.542,107.523 163.542,107.356 166.5,106.5C 168.071,107.204 169.738,108.537 171.5,110.5C 172.579,112.456 174.579,114.122 177.5,115.5C 178.008,117.233 178.841,117.566 180,116.5C 180.71,117.973 181.876,118.64 183.5,118.5C 182.942,112.63 182.608,107.13 182.5,102C 183.288,98.9243 183.788,95.7577 184,92.5C 184.333,92.8333 184.667,93.1667 185,93.5C 186.223,91.0147 187.723,90.848 189.5,93C 189.167,93.3333 188.833,93.6667 188.5,94C 190.776,95.0302 191.443,96.5302 190.5,98.5C 191.793,100.103 192.793,101.769 193.5,103.5 Z"/></g>
<g><path style="opacity:0.008" fill="#feff7f" d="M 177.5,114.5 C 178.833,115.167 178.833,115.167 177.5,114.5 Z"/></g>
<g><path style="opacity:0.02" fill="#fecc32" d="M 171.5,109.5 C 172.833,110.167 172.833,110.167 171.5,109.5 Z"/></g>
<g><path style="opacity:0.012" fill="#feff54" d="M 56.5,244.5 C 55.8333,243.167 55.8333,243.167 56.5,244.5 Z"/></g>
<g><path style="opacity:0.986" fill="#f8d615" d="M 86.5,235.5 C 84.5242,237.011 82.1909,237.844 79.5,238C 77.81,239.99 76.4766,242.157 75.5,244.5C 77.1313,249.078 76.7979,253.412 74.5,257.5C 74.8267,259.494 76.16,261.161 78.5,262.5C 67.855,259.893 57.1883,257.393 46.5,255C 45.4464,253.612 45.2797,252.112 46,250.5C 47.5298,249.364 48.8631,248.364 50,247.5C 50.3333,247.833 50.6667,248.167 51,248.5C 52,247.167 53,245.833 54,244.5C 54.9772,245.774 55.8106,245.774 56.5,244.5C 57.2216,244.082 57.7216,243.416 58,242.5C 59.016,243.634 59.6827,243.301 60,241.5C 61.016,242.634 61.6827,242.301 62,240.5C 64.0545,240.848 66.0545,240.181 68,238.5C 68.3333,238.833 68.6667,239.167 69,239.5C 74.8728,237.01 80.7061,235.677 86.5,235.5 Z"/></g>
<g><path style="opacity:1" fill="#5c4301" d="M 266.5,75.5 C 265.835,73.6309 265.169,71.6309 264.5,69.5C 263.522,69.9767 262.689,70.6433 262,71.5C 261.792,74.998 260.959,78.3313 259.5,81.5C 259.846,82.8492 260.179,84.1825 260.5,85.5C 258.025,86.6874 257.025,88.6874 257.5,91.5C 255.876,91.3601 254.71,92.0267 254,93.5C 253.667,95.8333 253.333,98.1667 253,100.5C 250.847,106.881 248.513,113.214 246,119.5C 245.667,122.167 245.333,124.833 245,127.5C 238.726,137.546 234.726,148.546 233,160.5C 232.333,161.833 231.667,161.833 231,160.5C 230.22,164.682 229.386,168.849 228.5,173C 225.166,179.831 221.999,186.664 219,193.5C 217.197,202.24 214.197,210.574 210,218.5C 209.304,221.478 208.804,224.478 208.5,227.5C 207.5,227.5 206.5,227.5 205.5,227.5C 204.99,232.211 204.156,236.878 203,241.5C 202.586,241.957 202.086,242.291 201.5,242.5C 200.475,246.818 199.142,250.984 197.5,255C 197.645,255.772 197.978,256.439 198.5,257C 196.718,257.814 195.218,258.981 194,260.5C 192.607,270.691 189.273,280.024 184,288.5C 183.703,291.914 183.036,295.247 182,298.5C 175.879,315.228 169.379,331.728 162.5,348C 162.031,349.962 162.697,351.795 164.5,353.5C 165.305,350.696 165.972,347.862 166.5,345C 167.356,343.405 168.689,342.572 170.5,342.5C 170.069,345.449 168.902,348.116 167,350.5C 166.503,352.81 166.337,355.143 166.5,357.5C 168.199,357.527 169.533,358.194 170.5,359.5C 171.11,360.391 171.443,361.391 171.5,362.5C 167.22,360.553 163.887,357.553 161.5,353.5C 161.481,351.94 161.148,350.44 160.5,349C 162.571,341.37 164.904,333.87 167.5,326.5C 166.674,324.452 167.341,322.785 169.5,321.5C 170.607,307.349 174.44,294.016 181,281.5C 182.317,276.9 183.317,272.234 184,267.5C 187.143,263.431 189.143,258.765 190,253.5C 195.246,243.033 198.912,232.033 201,220.5C 205.598,213.755 209.265,206.422 212,198.5C 213.23,189.523 216.564,181.523 222,174.5C 221.333,168.486 222.999,163.153 227,158.5C 228.549,150.376 231.216,142.709 235,135.5C 237.714,125.996 241.047,116.663 245,107.5C 246.332,99.5049 247.665,91.5049 249,83.5C 251.004,80.7154 253.171,78.0488 255.5,75.5C 256.689,74.5713 258.022,74.238 259.5,74.5C 259.926,72.8612 259.926,71.5279 259.5,70.5C 259.833,69.8333 260.167,69.1667 260.5,68.5C 262.463,67.0401 264.296,65.3734 266,63.5C 266.273,65.1012 266.773,66.6012 267.5,68C 266.565,70.3806 266.232,72.8806 266.5,75.5 Z"/></g>
<g><path style="opacity:1" fill="#392901" d="M 265.5,81.5 C 263.751,96.1484 263.417,110.815 264.5,125.5C 263.85,125.196 263.183,124.863 262.5,124.5C 261.051,127.821 260.718,131.154 261.5,134.5C 260.231,143.258 258.398,151.925 256,160.5C 254.989,161.337 253.822,161.67 252.5,161.5C 249.961,171.527 247.294,181.527 244.5,191.5C 241.714,197.719 238.547,203.719 235,209.5C 235.13,215.463 233.13,220.463 229,224.5C 227.794,229.531 226.46,234.531 225,239.5C 220.581,246.544 218.081,254.211 217.5,262.5C 215.876,262.36 214.71,263.027 214,264.5C 208.131,280.043 203.131,296.043 199,312.5C 195.459,313.019 193.293,315.019 192.5,318.5C 191.675,319.386 190.675,319.719 189.5,319.5C 187.699,326.043 186.532,332.71 186,339.5C 184.488,340.257 183.154,341.257 182,342.5C 179.985,349.225 178.151,356.059 176.5,363C 177.33,366.248 179.33,368.415 182.5,369.5C 182.833,370.167 183.167,370.833 183.5,371.5C 182.883,371.611 182.383,371.944 182,372.5C 178.255,369.25 174.755,365.917 171.5,362.5C 173.178,357.422 174.844,352.089 176.5,346.5C 177.708,343.609 179.208,340.942 181,338.5C 181.42,334.809 181.92,331.142 182.5,327.5C 183.833,327.5 185.167,327.5 186.5,327.5C 186.425,323.103 186.925,318.77 188,314.5C 190.494,309.395 192.494,304.062 194,298.5C 197.022,295.109 198.689,291.109 199,286.5C 203.297,279.957 205.797,272.623 206.5,264.5C 207.478,264.023 208.311,263.357 209,262.5C 209.333,260.167 209.667,257.833 210,255.5C 212.631,251.911 213.797,247.911 213.5,243.5C 215.124,243.64 216.29,242.973 217,241.5C 217.757,234.776 220.09,228.776 224,223.5C 225.749,217.042 227.749,210.709 230,204.5C 231.726,202.772 233.059,200.772 234,198.5C 234.273,193.771 234.939,189.104 236,184.5C 237.085,182.627 238.418,180.96 240,179.5C 241.895,173.531 243.728,167.531 245.5,161.5C 247.103,161.688 248.437,161.188 249.5,160C 246.919,158.159 246.919,156.326 249.5,154.5C 252.705,142.388 256.205,130.388 260,118.5C 260.5,112.175 260.666,105.842 260.5,99.5C 261.17,93.1083 262.837,87.1083 265.5,81.5 Z"/></g>
<g><path style="opacity:1" fill="#a67800" d="M 211.5,117.5 C 210.587,119.086 210.587,120.586 211.5,122C 209.911,125.999 208.078,129.832 206,133.5C 204.574,139.981 202.907,146.315 201,152.5C 200.667,151.5 200.333,150.5 200,149.5C 198.592,153.057 197.592,156.724 197,160.5C 193.559,166.425 191.392,172.758 190.5,179.5C 189.5,179.5 188.5,179.5 187.5,179.5C 186.752,181.584 186.752,183.584 187.5,185.5C 186.546,189.727 185.213,193.727 183.5,197.5C 182.178,197.33 181.011,197.663 180,198.5C 179.037,206.045 176.704,213.045 173,219.5C 171.514,224.777 170.347,230.111 169.5,235.5C 168.5,235.5 167.5,235.5 166.5,235.5C 165.391,240.429 164.224,245.429 163,250.5C 160.453,254.426 158.287,258.592 156.5,263C 156.833,263.333 157.167,263.667 157.5,264C 153.582,270.235 151.415,277.068 151,284.5C 150.5,285.667 149.667,286.5 148.5,287C 149.617,290.073 149.784,293.24 149,296.5C 145.078,308.591 141.245,320.258 137.5,331.5C 135.833,330.5 134.5,329.167 133.5,327.5C 133.5,326.5 133.5,325.5 133.5,324.5C 133.926,321.937 134.926,319.603 136.5,317.5C 136.069,316.707 135.735,315.873 135.5,315C 137.128,311.415 137.961,307.581 138,303.5C 141.481,294.877 143.981,286.211 145.5,277.5C 146.086,277.291 146.586,276.957 147,276.5C 149.252,271.07 150.919,265.403 152,259.5C 152.837,257.156 154.171,255.156 156,253.5C 159.176,243.772 162.176,234.105 165,224.5C 166.299,223.91 167.132,222.91 167.5,221.5C 171.531,209.757 176.031,198.09 181,186.5C 181.361,183.475 181.861,180.475 182.5,177.5C 185.801,171.555 188.801,165.555 191.5,159.5C 191.069,158.707 190.735,157.873 190.5,157C 192.662,153.511 193.829,149.678 194,145.5C 197.06,142.047 199.06,138.047 200,133.5C 200.333,133.833 200.667,134.167 201,134.5C 201.5,126.806 205,121.14 211.5,117.5 Z"/></g>
<g><path style="opacity:1" fill="#241a01" d="M 266.5,137.5 C 267.747,143.195 270.247,143.862 274,139.5C 274.77,140.598 275.603,140.598 276.5,139.5C 274.64,142.049 273.14,146.049 272,151.5C 271.667,154.833 271.333,158.167 271,161.5C 268.264,165.779 266.764,170.446 266.5,175.5C 264.833,175.5 263.167,175.5 261.5,175.5C 259.12,182.848 257.12,190.348 255.5,198C 254.327,199.505 253.161,201.005 252,202.5C 252.121,205.921 250.788,208.588 248,210.5C 246.595,218.04 244.595,225.373 242,232.5C 241.251,237.489 240.585,242.489 240,247.5C 239.818,244.774 239.318,242.107 238.5,239.5C 237.598,243.122 236.098,246.455 234,249.5C 230.514,259.454 227.347,269.454 224.5,279.5C 223.593,282.556 222.093,285.222 220,287.5C 219.503,290.146 219.336,292.813 219.5,295.5C 218.5,295.5 217.5,295.5 216.5,295.5C 215.996,302.531 215.162,309.531 214,316.5C 213.798,314.744 213.298,313.078 212.5,311.5C 211.52,314.086 211.187,316.753 211.5,319.5C 210.5,319.5 209.5,319.5 208.5,319.5C 207.886,323.135 207.552,326.802 207.5,330.5C 206.167,330.5 204.833,330.5 203.5,330.5C 204.412,336.424 203.245,341.758 200,346.5C 198.554,350.722 197.72,355.055 197.5,359.5C 196.5,359.5 195.5,359.5 194.5,359.5C 192.804,363.453 191.804,367.619 191.5,372C 191.444,374.574 192.444,376.407 194.5,377.5C 194.5,378.167 194.5,378.833 194.5,379.5C 194.167,379.5 193.833,379.5 193.5,379.5C 191.768,378.052 189.768,377.218 187.5,377C 187.833,376.667 188.167,376.333 188.5,376C 186,375.329 184.333,373.829 183.5,371.5C 183.167,370.833 182.833,370.167 182.5,369.5C 182.389,368.883 182.056,368.383 181.5,368C 185.446,366.28 186.779,363.447 185.5,359.5C 188.437,351.675 191.437,343.841 194.5,336C 193.663,334.989 193.33,333.822 193.5,332.5C 194.822,332.67 195.989,332.337 197,331.5C 197.365,326.118 198.865,321.118 201.5,316.5C 200.185,315.105 200.519,314.105 202.5,313.5C 204.121,309.258 205.454,304.924 206.5,300.5C 207.167,300.167 207.833,299.833 208.5,299.5C 209.415,295.185 210.248,290.852 211,286.5C 217.526,272.045 223.526,257.379 229,242.5C 229.333,240.167 229.667,237.833 230,235.5C 233.664,230.85 235.164,225.517 234.5,219.5C 235.5,219.5 236.5,219.5 237.5,219.5C 239.467,214.552 241.634,209.552 244,204.5C 244.882,201.211 245.548,197.877 246,194.5C 246.667,193.833 247.333,193.167 248,192.5C 250.471,183.425 252.971,174.425 255.5,165.5C 256.5,165.5 257.5,165.5 258.5,165.5C 260.255,160.388 261.255,155.054 261.5,149.5C 262.5,149.5 263.5,149.5 264.5,149.5C 263.911,145.029 264.577,141.029 266.5,137.5 Z"/></g>
<g><path style="opacity:1" fill="#533c00" d="M 260.5,85.5 C 258.349,95.0295 256.016,104.363 253.5,113.5C 251.876,113.36 250.71,114.027 250,115.5C 249.088,119.795 248.421,124.128 248,128.5C 244.792,136.075 241.292,143.408 237.5,150.5C 238.025,151.192 238.692,151.692 239.5,152C 238,152.833 236.833,154 236,155.5C 236.472,161.098 235.139,166.432 232,171.5C 231.667,170.833 231.333,170.167 231,169.5C 229.889,178.032 226.889,185.699 222,192.5C 220.048,201.254 217.715,209.921 215,218.5C 212.222,223.495 210.222,228.828 209,234.5C 203.954,244.946 199.954,255.946 197,267.5C 194.808,272.376 192.141,277.043 189,281.5C 188.158,285.869 187.158,290.203 186,294.5C 183.928,297.455 182.595,300.788 182,304.5C 178.809,310.189 176.809,316.189 176,322.5C 175.333,323.167 174.667,323.833 174,324.5C 173.605,328.019 172.605,331.352 171,334.5C 170.503,337.146 170.336,339.813 170.5,342.5C 168.689,342.572 167.356,343.405 166.5,345C 165.972,347.862 165.305,350.696 164.5,353.5C 162.697,351.795 162.031,349.962 162.5,348C 169.379,331.728 175.879,315.228 182,298.5C 183.036,295.247 183.703,291.914 184,288.5C 189.273,280.024 192.607,270.691 194,260.5C 195.218,258.981 196.718,257.814 198.5,257C 197.978,256.439 197.645,255.772 197.5,255C 199.142,250.984 200.475,246.818 201.5,242.5C 202.086,242.291 202.586,241.957 203,241.5C 204.156,236.878 204.99,232.211 205.5,227.5C 206.5,227.5 207.5,227.5 208.5,227.5C 208.804,224.478 209.304,221.478 210,218.5C 214.197,210.574 217.197,202.24 219,193.5C 221.999,186.664 225.166,179.831 228.5,173C 229.386,168.849 230.22,164.682 231,160.5C 231.667,161.833 232.333,161.833 233,160.5C 234.726,148.546 238.726,137.546 245,127.5C 245.333,124.833 245.667,122.167 246,119.5C 248.513,113.214 250.847,106.881 253,100.5C 253.333,98.1667 253.667,95.8333 254,93.5C 254.71,92.0267 255.876,91.3601 257.5,91.5C 257.025,88.6874 258.025,86.6874 260.5,85.5 Z"/></g>
<g><path style="opacity:0.997" fill="#e9b90a" d="M 108.5,288.5 C 107.319,290.067 105.653,290.901 103.5,291C 103.65,297.1 103.65,303.1 103.5,309C 105.156,310.829 107.156,312.163 109.5,313C 108.944,313.383 108.611,313.883 108.5,314.5C 103.01,312.225 97.3434,310.559 91.5,309.5C 91.38,308.414 90.7133,307.747 89.5,307.5C 87.5,307 85.5,306.5 83.5,306C 83.8333,305.667 84.1667,305.333 84.5,305C 82.8258,302.492 81.8258,299.658 81.5,296.5C 84.0708,295.095 84.0708,293.762 81.5,292.5C 83.238,290.566 85.0713,290.233 87,291.5C 93.9631,288.782 101.13,287.782 108.5,288.5 Z"/></g>
<g><path style="opacity:0.999" fill="#d4a105" d="M 108.5,288.5 C 116.482,288.373 124.149,288.706 131.5,289.5C 129.863,290.38 128.03,291.046 126,291.5C 123.572,292.845 123.072,294.679 124.5,297C 123.819,301.094 122.819,305.094 121.5,309C 121.939,312.016 121.939,315.182 121.5,318.5C 122.833,318.5 124.167,318.5 125.5,318.5C 125.5,319.5 125.5,320.5 125.5,321.5C 120.264,318.197 114.597,315.864 108.5,314.5C 108.611,313.883 108.944,313.383 109.5,313C 107.156,312.163 105.156,310.829 103.5,309C 103.65,303.1 103.65,297.1 103.5,291C 105.653,290.901 107.319,290.067 108.5,288.5 Z"/></g>
<g><path style="opacity:1" fill="#825e00" d="M 243.5,84.5 C 243.649,85.552 243.483,86.552 243,87.5C 239.472,90.3216 236.638,93.6549 234.5,97.5C 234.779,105.339 232.613,112.339 228,118.5C 227.816,124.61 225.816,129.943 222,134.5C 220.889,140.221 219.723,145.888 218.5,151.5C 217.5,151.5 216.5,151.5 215.5,151.5C 213.774,156.284 212.607,161.284 212,166.5C 207.112,176.393 203.612,186.726 201.5,197.5C 200.178,197.33 199.011,197.663 198,198.5C 197,203.167 196,207.833 195,212.5C 190.285,220.157 187.285,228.491 186,237.5C 184.402,241.42 182.402,245.086 180,248.5C 179.256,254.643 176.923,259.976 173,264.5C 172.123,270.401 170.956,276.235 169.5,282C 168.991,283.169 168.158,284.002 167,284.5C 164.485,292.716 162.151,301.049 160,309.5C 159.047,311.455 157.713,313.122 156,314.5C 155.667,318.5 155.333,322.5 155,326.5C 153.398,328.263 152.898,330.096 153.5,332C 151.865,335.276 150.865,338.443 150.5,341.5C 148.37,339.873 146.37,338.04 144.5,336C 147.833,323.999 151.666,312.165 156,300.5C 156.615,298.884 157.615,297.551 159,296.5C 159.72,294.888 159.554,293.388 158.5,292C 160.809,286.741 163.309,281.574 166,276.5C 165.584,270.955 167.251,266.289 171,262.5C 171.25,257.006 172.917,252.006 176,247.5C 181.166,229.996 187.499,212.996 195,196.5C 206.4,165.183 217.9,133.183 229.5,100.5C 229.561,98.279 228.895,97.9456 227.5,99.5C 228.082,98.0689 228.915,96.7356 230,95.5C 230.333,95.8333 230.667,96.1667 231,96.5C 231.333,95.5 231.667,94.5 232,93.5C 232.333,93.8333 232.667,94.1667 233,94.5C 236.694,90.6202 240.194,87.2868 243.5,84.5 Z"/></g>
<g><path style="opacity:0.995" fill="#f5d318" d="M 81.5,292.5 C 84.0708,293.762 84.0708,295.095 81.5,296.5C 81.8258,299.658 82.8258,302.492 84.5,305C 84.1667,305.333 83.8333,305.667 83.5,306C 85.5,306.5 87.5,307 89.5,307.5C 90.7133,307.747 91.38,308.414 91.5,309.5C 82.9407,307.622 74.274,306.456 65.5,306C 63.9926,305.163 63.4926,303.996 64,302.5C 69.9408,296.689 75.7741,293.355 81.5,292.5 Z"/></g>
<g><path style="opacity:0.004" fill="#feff00" d="M 193.5,379.5 C 193.833,379.5 194.167,379.5 194.5,379.5C 194.833,380.167 195.167,380.833 195.5,381.5C 194.167,381.5 193.5,380.833 193.5,379.5 Z"/></g>
</svg>
